<?xml version="1.0" encoding="UTF-8"?>
<!DOCTYPE svg PUBLIC "-//W3C//DTD SVG 1.1//EN" "http://www.w3.org/Graphics/SVG/1.1/DTD/svg11.dtd">
<svg xmlns="http://www.w3.org/2000/svg" version="1.1" width="431px" height="429px" style="shape-rendering:geometricPrecision; text-rendering:geometricPrecision; image-rendering:optimizeQuality; fill-rule:evenodd; clip-rule:evenodd" xmlns:xlink="http://www.w3.org/1999/xlink">
<g><path style="opacity:1" fill="#fb355d" d="M 278.5,38.5 C 278.79,44.561 278.457,50.561 277.5,56.5C 278.274,57.7112 279.107,57.7112 280,56.5C 280.25,59.8502 281.083,63.0169 282.5,66C 282.167,66.3333 281.833,66.6667 281.5,67C 283,68.5 284.5,70 286,71.5C 287.77,70.7236 289.603,70.8903 291.5,72C 293.241,73.6196 295.075,75.1196 297,76.5C 298.707,75.8617 300.54,75.8617 302.5,76.5C 302.36,78.1238 303.027,79.2904 304.5,80C 310.516,81.4797 315.85,80.313 320.5,76.5C 321.192,77.0253 321.692,77.6919 322,78.5C 324.775,75.2203 327.942,72.5537 331.5,70.5C 341.442,65.704 351.775,61.704 362.5,58.5C 373.434,59.0468 380.934,64.3801 385,74.5C 398,97.1667 411,119.833 424,142.5C 425.732,148.161 425.899,153.828 424.5,159.5C 423.069,159.881 422.236,160.881 422,162.5C 421.667,162.167 421.333,161.833 421,161.5C 420,163.5 419,165.5 418,167.5C 417,167.5 416,167.5 415,167.5C 412.878,168.22 412.378,169.387 413.5,171C 412.234,171.309 411.067,171.809 410,172.5C 409.086,171.346 408.253,171.513 407.5,173C 407.833,173.333 408.167,173.667 408.5,174C 407.552,174.483 406.552,174.649 405.5,174.5C 405.5,175.833 405.5,177.167 405.5,178.5C 398.416,185.213 390.75,191.213 382.5,196.5C 380.544,195.508 378.544,194.508 376.5,193.5C 374.544,191.852 372.211,191.185 369.5,191.5C 369.281,196.629 368.614,196.629 367.5,191.5C 365.077,191.576 363.244,190.576 362,188.5C 360.269,189.741 358.436,190.741 356.5,191.5C 357.779,187.698 360.112,184.531 363.5,182C 376.311,172.023 388.978,161.857 401.5,151.5C 388.373,128.748 375.373,105.915 362.5,83C 361.5,82.3333 360.5,82.3333 359.5,83C 345.583,89.1282 331.583,94.9615 317.5,100.5C 314.333,101.028 311.166,101.695 308,102.5C 304.708,102.345 301.541,101.678 298.5,100.5C 288.442,93.1344 277.442,87.3011 265.5,83C 264.667,82.1667 263.833,81.3333 263,80.5C 259.071,61.5964 255.571,42.5964 252.5,23.5C 225.833,22.1667 199.167,22.1667 172.5,23.5C 170.09,39.1132 167.923,54.7798 166,70.5C 165.036,74.4685 162.869,77.6351 159.5,80C 149.076,85.2899 139.076,91.1232 129.5,97.5C 127.914,98.4132 126.414,98.4132 125,97.5C 124.517,98.448 124.351,99.448 124.5,100.5C 121.167,100.5 117.833,100.5 114.5,100.5C 110.863,99.7365 107.53,98.4032 104.5,96.5C 103.55,93.8851 101.883,91.8851 99.5,90.5C 98.5581,90.6082 97.7247,90.9415 97,91.5C 92.4832,90.343 88.9832,88.5097 86.5,86C 79.6852,83.6008 72.6852,81.7675 65.5,80.5C 57.5813,93.3353 49.9146,106.335 42.5,119.5C 40.461,120.911 39.461,122.911 39.5,125.5C 35.4044,133.364 31.0711,141.031 26.5,148.5C 25.3065,148.97 24.6399,149.97 24.5,151.5C 25.3751,155.874 28.0417,158.374 32.5,159C 34.3348,159.928 34.6682,161.094 33.5,162.5C 36.0348,164.85 39.0348,166.35 42.5,167C 43.8333,168.333 43.8333,169.667 42.5,171C 45.5533,172.692 48.5533,174.025 51.5,175C 51.1667,175.333 50.8333,175.667 50.5,176C 51.8049,178.148 53.6383,179.648 56,180.5C 57.0875,178.068 57.5875,178.402 57.5,181.5C 61.1068,181.379 63.2734,183.045 64,186.5C 67,186.833 68.6667,188.5 69,191.5C 69.041,199.319 68.8743,207.152 68.5,215C 68.3059,221.974 68.9726,228.807 70.5,235.5C 69.8736,238.315 68.5402,240.815 66.5,243C 52.4693,253.352 38.8026,264.185 25.5,275.5C 27.705,278.577 29.3716,281.91 30.5,285.5C 27.5739,284.539 24.5739,283.873 21.5,283.5C 22.0366,287.981 20.3699,289.314 16.5,287.5C 16.6882,289.103 16.1882,290.437 15,291.5C 12.4066,290.254 9.90664,288.921 7.5,287.5C 7.00418,284.507 5.50418,282.174 3,280.5C 2.35234,275.796 2.51901,271.129 3.5,266.5C 5.49749,261.988 8.49749,258.155 12.5,255C 22.6526,246.758 32.986,238.758 43.5,231C 45.1243,229.883 46.1243,228.383 46.5,226.5C 45.9184,223.198 45.5851,219.865 45.5,216.5C 45.7811,210.73 46.2811,205.064 47,199.5C 33.0416,188.544 19.375,177.21 6,165.5C 0.544954,156.664 0.211621,147.664 5,138.5C 18.5866,114.995 31.9199,91.3286 45,67.5C 50.6785,59.2452 58.5118,55.7452 68.5,57C 85.1766,63.4221 101.677,70.2554 118,77.5C 125.916,72.1236 134.083,67.1236 142.5,62.5C 145.23,46.5592 147.73,30.5592 150,14.5C 153.929,5.56857 160.762,1.06857 170.5,1C 202.228,0.0224171 233.894,0.35575 265.5,2C 269.784,5.28807 272.95,9.45473 275,14.5C 276.681,22.433 277.848,30.433 278.5,38.5 Z"/></g>
<g><path style="opacity:1" fill="#f13860" d="M 278.5,38.5 C 280.403,46.6226 281.903,54.9559 283,63.5C 291.871,68.6894 300.705,74.0227 309.5,79.5C 316.696,76.1029 324.03,73.1029 331.5,70.5C 327.942,72.5537 324.775,75.2203 322,78.5C 321.692,77.6919 321.192,77.0253 320.5,76.5C 315.85,80.313 310.516,81.4797 304.5,80C 303.027,79.2904 302.36,78.1238 302.5,76.5C 300.54,75.8617 298.707,75.8617 297,76.5C 295.075,75.1196 293.241,73.6196 291.5,72C 289.603,70.8903 287.77,70.7236 286,71.5C 284.5,70 283,68.5 281.5,67C 281.833,66.6667 282.167,66.3333 282.5,66C 281.083,63.0169 280.25,59.8502 280,56.5C 279.107,57.7112 278.274,57.7112 277.5,56.5C 278.457,50.561 278.79,44.561 278.5,38.5 Z"/></g>
<g><path style="opacity:1" fill="#f23a61" d="M 65.5,80.5 C 72.6852,81.7675 79.6852,83.6008 86.5,86C 88.9832,88.5097 92.4832,90.343 97,91.5C 97.7247,90.9415 98.5581,90.6082 99.5,90.5C 101.883,91.8851 103.55,93.8851 104.5,96.5C 91.1016,91.9284 78.1016,86.5951 65.5,80.5 Z"/></g>
<g><path style="opacity:0.988" fill="#e24162" d="M 129.5,97.5 C 126.106,101.466 121.773,102.966 116.5,102C 115.584,101.722 114.918,101.222 114.5,100.5C 117.833,100.5 121.167,100.5 124.5,100.5C 124.351,99.448 124.517,98.448 125,97.5C 126.414,98.4132 127.914,98.4132 129.5,97.5 Z"/></g>
<g><path style="opacity:1" fill="#e54064" d="M 298.5,100.5 C 301.541,101.678 304.708,102.345 308,102.5C 311.166,101.695 314.333,101.028 317.5,100.5C 311.064,105.669 304.731,105.669 298.5,100.5 Z"/></g>
<g><path style="opacity:1" fill="#fb355d" d="M 199.5,112.5 C 210.336,112.098 220.67,112.931 230.5,115C 232,115.833 233.167,117 234,118.5C 234.605,116.519 235.605,116.185 237,117.5C 240.007,115.507 243.174,115.507 246.5,117.5C 248.177,119.54 249.844,121.54 251.5,123.5C 252.386,122.675 252.719,121.675 252.5,120.5C 254.451,120.227 255.951,120.893 257,122.5C 257.671,121.748 258.504,121.414 259.5,121.5C 289.32,136.171 307.82,159.837 315,192.5C 322.511,244.312 303.345,282.479 257.5,307C 248.559,311.037 239.225,313.537 229.5,314.5C 220.161,314.666 210.827,314.5 201.5,314C 197.543,313.281 193.543,311.781 189.5,309.5C 186.378,311.117 183.878,310.45 182,307.5C 180.301,308.406 178.467,308.739 176.5,308.5C 140.726,293.547 119.56,266.88 113,228.5C 108.397,179.156 127.897,142.989 171.5,120C 180.338,115.624 189.671,113.124 199.5,112.5 Z M 207.5,134.5 C 216.582,134.23 225.582,134.897 234.5,136.5C 276.198,151.398 295.698,181.065 293,225.5C 287.649,254.519 271.482,275.019 244.5,287C 208.144,299.333 177.31,291.167 152,262.5C 143.171,250.175 137.671,236.508 135.5,221.5C 135.344,213.471 135.677,205.471 136.5,197.5C 146.647,161.357 170.314,140.357 207.5,134.5 Z"/></g>
<g><path style="opacity:0.999" fill="#ef3a5f" d="M 259.5,121.5 C 258.504,121.414 257.671,121.748 257,122.5C 255.951,120.893 254.451,120.227 252.5,120.5C 252.719,121.675 252.386,122.675 251.5,123.5C 249.844,121.54 248.177,119.54 246.5,117.5C 243.174,115.507 240.007,115.507 237,117.5C 235.605,116.185 234.605,116.519 234,118.5C 233.167,117 232,115.833 230.5,115C 220.67,112.931 210.336,112.098 199.5,112.5C 216.696,109.751 233.696,111.251 250.5,117C 253.823,118.04 256.823,119.54 259.5,121.5 Z"/></g>
<g><path style="opacity:0.384" fill="#cc4b62" d="M 42.5,119.5 C 42.0075,121.819 41.0075,123.819 39.5,125.5C 39.461,122.911 40.461,120.911 42.5,119.5 Z"/></g>
<g><path style="opacity:1" fill="#e04464" d="M 234.5,136.5 C 225.582,134.897 216.582,134.23 207.5,134.5C 209.915,133.186 212.748,132.519 216,132.5C 218.833,132.667 221.667,132.833 224.5,133C 227.927,134.062 231.261,135.229 234.5,136.5 Z"/></g>
<g><path style="opacity:1" fill="#eb3a61" d="M 424.5,159.5 C 419.882,167.451 413.549,173.784 405.5,178.5C 405.5,177.167 405.5,175.833 405.5,174.5C 406.552,174.649 407.552,174.483 408.5,174C 408.167,173.667 407.833,173.333 407.5,173C 408.253,171.513 409.086,171.346 410,172.5C 411.067,171.809 412.234,171.309 413.5,171C 412.378,169.387 412.878,168.22 415,167.5C 416,167.5 417,167.5 418,167.5C 419,165.5 420,163.5 421,161.5C 421.333,161.833 421.667,162.167 422,162.5C 422.236,160.881 423.069,159.881 424.5,159.5 Z"/></g>
<g><path style="opacity:1" fill="#eb3a60" d="M 26.5,148.5 C 25.7084,149.967 25.7084,151.3 26.5,152.5C 41.4373,163.934 55.9373,175.934 70,188.5C 70.5788,190.649 71.0788,192.815 71.5,195C 68.9582,207.689 68.9582,220.355 71.5,233C 71.472,234.07 71.1386,234.903 70.5,235.5C 68.9726,228.807 68.3059,221.974 68.5,215C 68.8743,207.152 69.041,199.319 69,191.5C 68.6667,188.5 67,186.833 64,186.5C 63.2734,183.045 61.1068,181.379 57.5,181.5C 57.5875,178.402 57.0875,178.068 56,180.5C 53.6383,179.648 51.8049,178.148 50.5,176C 50.8333,175.667 51.1667,175.333 51.5,175C 48.5533,174.025 45.5533,172.692 42.5,171C 43.8333,169.667 43.8333,168.333 42.5,167C 39.0348,166.35 36.0348,164.85 33.5,162.5C 34.6682,161.094 34.3348,159.928 32.5,159C 28.0417,158.374 25.3751,155.874 24.5,151.5C 24.6399,149.97 25.3065,148.97 26.5,148.5 Z"/></g>
<g><path style="opacity:1" fill="#fc355d" d="M 376.5,193.5 C 377.028,194.721 377.695,195.887 378.5,197C 376.557,198.193 376.724,199.693 379,201.5C 379.138,211.06 379.138,220.394 379,229.5C 379.972,231.305 381.139,232.972 382.5,234.5C 379.771,236.367 380.104,237.367 383.5,237.5C 383.5,236.5 383.5,235.5 383.5,234.5C 385.677,234.586 387.677,235.253 389.5,236.5C 390.293,239.126 391.96,240.96 394.5,242C 393.483,243.049 393.316,244.216 394,245.5C 395.566,246.061 396.899,245.394 398,243.5C 400.075,245.663 402.575,246.996 405.5,247.5C 412.911,251.684 419.245,257.017 424.5,263.5C 426.125,269.694 426.792,276.028 426.5,282.5C 412.53,308.436 398.03,334.103 383,359.5C 380.341,363.236 376.841,365.569 372.5,366.5C 366.013,366.848 359.68,366.182 353.5,364.5C 339.196,359.268 325.03,353.601 311,347.5C 302.829,352.854 294.329,357.52 285.5,361.5C 285.483,363.565 285.15,365.565 284.5,367.5C 283.448,367.351 282.448,367.517 281.5,368C 282.456,371.394 282.789,374.894 282.5,378.5C 282.5,378.833 282.5,379.167 282.5,379.5C 281.016,384.34 279.016,389.007 276.5,393.5C 276.99,395.902 277.324,398.235 277.5,400.5C 277.333,404.235 276,407.402 273.5,410C 273.957,410.414 274.291,410.914 274.5,411.5C 272.394,414.269 270.727,417.269 269.5,420.5C 268.914,420.291 268.414,419.957 268,419.5C 267.716,421.886 266.716,422.552 265,421.5C 264.517,422.448 264.351,423.448 264.5,424.5C 262.219,424.077 260.552,424.744 259.5,426.5C 228.669,427.664 197.669,427.831 166.5,427C 163.623,426.044 160.956,424.711 158.5,423C 156.859,421.871 155.859,420.371 155.5,418.5C 158.125,417.559 158.125,416.393 155.5,415C 155.616,413.732 155.949,412.398 156.5,411C 155.584,410.626 154.75,410.126 154,409.5C 152.908,403.218 152.242,396.884 152,390.5C 148.06,382.126 146.893,373.626 148.5,365C 146.193,363.172 146.526,361.506 149.5,360C 145.883,360.043 142.217,359.376 138.5,358C 137.953,357.075 137.287,356.242 136.5,355.5C 134.872,356.535 133.205,356.535 131.5,355.5C 126.643,353.486 122.143,350.819 118,347.5C 107.098,352.035 96.2645,356.702 85.5,361.5C 81.8287,360.126 78.4953,360.959 75.5,364C 74.2161,364.684 73.0495,364.517 72,363.5C 70.9326,364.191 69.7659,364.691 68.5,365C 68.8333,365.333 69.1667,365.667 69.5,366C 65.8333,366.667 62.1667,366.667 58.5,366C 59.8627,363.871 59.5294,363.371 57.5,364.5C 56.0878,363.194 54.4211,362.36 52.5,362C 51.1667,361.333 51.1667,360.667 52.5,360C 50.5273,359.505 48.5273,359.338 46.5,359.5C 34.2352,338.635 22.2352,317.635 10.5,296.5C 9.69395,293.451 8.69395,290.451 7.5,287.5C 9.90664,288.921 12.4066,290.254 15,291.5C 16.1882,290.437 16.6882,289.103 16.5,287.5C 20.3699,289.314 22.0366,287.981 21.5,283.5C 24.5739,283.873 27.5739,284.539 30.5,285.5C 42.369,304.572 53.7023,324.072 64.5,344C 66.5527,344.325 68.5527,343.991 70.5,343C 84.7158,336.392 99.0491,330.059 113.5,324C 116.738,322.632 120.072,322.299 123.5,323C 129.5,327 135.5,331 141.5,335C 148.083,338.194 154.75,341.194 161.5,344C 162.333,344.833 163.167,345.667 164,346.5C 167.027,358.661 169.194,370.995 170.5,383.5C 169.766,384.878 169.099,386.378 168.5,388C 169.133,391.76 170.133,395.427 171.5,399C 168.85,401.082 169.184,402.749 172.5,404C 171.167,404.667 171.167,405.333 172.5,406C 175.89,406.246 179.223,406.746 182.5,407.5C 206.791,406.676 231.124,406.176 255.5,406C 255.835,401.655 257.835,398.322 261.5,396C 260.692,395.692 260.025,395.192 259.5,394.5C 260.131,391.186 260.131,387.686 259.5,384C 261.142,379.967 262.475,376.134 263.5,372.5C 262.985,370.364 262.651,368.197 262.5,366C 263.933,360.603 264.6,355.103 264.5,349.5C 265.312,346.725 266.979,344.558 269.5,343C 280.41,338.88 290.41,333.213 299.5,326C 302.592,324.136 305.926,322.969 309.5,322.5C 328.367,329.445 347.034,336.612 365.5,344C 378.427,321.479 391.094,298.812 403.5,276C 394.996,268.665 386.329,261.498 377.5,254.5C 376.803,252.929 376.47,251.429 376.5,250C 375.167,250 373.833,250 372.5,250C 368.437,246.024 364.27,242.191 360,238.5C 358.661,229.893 358.161,221.226 358.5,212.5C 357.937,206.436 356.937,200.436 355.5,194.5C 355.685,193.416 356.018,192.416 356.5,191.5C 358.436,190.741 360.269,189.741 362,188.5C 363.244,190.576 365.077,191.576 367.5,191.5C 368.614,196.629 369.281,196.629 369.5,191.5C 372.211,191.185 374.544,191.852 376.5,193.5 Z"/></g>
<g><path style="opacity:1" fill="#f03961" d="M 376.5,193.5 C 378.544,194.508 380.544,195.508 382.5,196.5C 381.418,197.594 380.752,198.927 380.5,200.5C 381.912,209.239 381.579,217.905 379.5,226.5C 388.186,233.523 396.852,240.523 405.5,247.5C 402.575,246.996 400.075,245.663 398,243.5C 396.899,245.394 395.566,246.061 394,245.5C 393.316,244.216 393.483,243.049 394.5,242C 391.96,240.96 390.293,239.126 389.5,236.5C 387.677,235.253 385.677,234.586 383.5,234.5C 383.5,235.5 383.5,236.5 383.5,237.5C 380.104,237.367 379.771,236.367 382.5,234.5C 381.139,232.972 379.972,231.305 379,229.5C 379.138,220.394 379.138,211.06 379,201.5C 376.724,199.693 376.557,198.193 378.5,197C 377.695,195.887 377.028,194.721 376.5,193.5 Z"/></g>
<g><path style="opacity:0.365" fill="#dd4064" d="M 136.5,197.5 C 135.677,205.471 135.344,213.471 135.5,221.5C 134.834,217.681 134.501,213.681 134.5,209.5C 134.509,205.107 135.176,201.107 136.5,197.5 Z"/></g>
<g><path style="opacity:0.987" fill="#ee3a60" d="M 358.5,212.5 C 358.161,221.226 358.661,229.893 360,238.5C 364.27,242.191 368.437,246.024 372.5,250C 373.833,250 375.167,250 376.5,250C 376.47,251.429 376.803,252.929 377.5,254.5C 369.635,250.14 362.802,244.473 357,237.5C 356.296,235.722 355.796,233.888 355.5,232C 356.391,225.339 357.391,218.839 358.5,212.5 Z"/></g>
<g><path style="opacity:0.994" fill="#dc3e5e" d="M 424.5,263.5 C 425.79,264.058 426.623,265.058 427,266.5C 429.137,272.057 428.971,277.39 426.5,282.5C 426.792,276.028 426.125,269.694 424.5,263.5 Z"/></g>
<g><path style="opacity:1" fill="#eb3c60" d="M 3.5,266.5 C 2.51901,271.129 2.35234,275.796 3,280.5C 5.50418,282.174 7.00418,284.507 7.5,287.5C 8.69395,290.451 9.69395,293.451 10.5,296.5C 2.954,288.689 0.12067,279.356 2,268.5C 2.27842,267.584 2.77842,266.918 3.5,266.5 Z"/></g>
<g><path style="opacity:1" fill="#eb3c61" d="M 229.5,314.5 C 211.305,317.58 193.639,315.58 176.5,308.5C 178.467,308.739 180.301,308.406 182,307.5C 183.878,310.45 186.378,311.117 189.5,309.5C 193.543,311.781 197.543,313.281 201.5,314C 210.827,314.5 220.161,314.666 229.5,314.5 Z"/></g>
<g><path style="opacity:1" fill="#e63f63" d="M 46.5,359.5 C 48.5273,359.338 50.5273,359.505 52.5,360C 51.1667,360.667 51.1667,361.333 52.5,362C 54.4211,362.36 56.0878,363.194 57.5,364.5C 59.5294,363.371 59.8627,363.871 58.5,366C 62.1667,366.667 65.8333,366.667 69.5,366C 69.1667,365.667 68.8333,365.333 68.5,365C 69.7659,364.691 70.9326,364.191 72,363.5C 73.0495,364.517 74.2161,364.684 75.5,364C 78.4953,360.959 81.8287,360.126 85.5,361.5C 78.4261,364.636 71.0928,366.969 63.5,368.5C 56.511,367.841 50.8444,364.841 46.5,359.5 Z"/></g>
<g><path style="opacity:0.996" fill="#e14265" d="M 353.5,364.5 C 359.68,366.182 366.013,366.848 372.5,366.5C 365.84,369.407 359.506,368.741 353.5,364.5 Z"/></g>
<g><path style="opacity:0.651" fill="#db4462" d="M 284.5,367.5 C 284.354,371.387 283.687,375.054 282.5,378.5C 282.789,374.894 282.456,371.394 281.5,368C 282.448,367.517 283.448,367.351 284.5,367.5 Z"/></g>
<g><path style="opacity:1" fill="#f03b62" d="M 131.5,355.5 C 133.205,356.535 134.872,356.535 136.5,355.5C 137.287,356.242 137.953,357.075 138.5,358C 142.217,359.376 145.883,360.043 149.5,360C 146.526,361.506 146.193,363.172 148.5,365C 146.893,373.626 148.06,382.126 152,390.5C 152.242,396.884 152.908,403.218 154,409.5C 154.75,410.126 155.584,410.626 156.5,411C 155.949,412.398 155.616,413.732 155.5,415C 158.125,416.393 158.125,417.559 155.5,418.5C 153.59,417.025 152.424,415.025 152,412.5C 149.333,395.833 146.667,379.167 144,362.5C 139.479,360.621 135.312,358.288 131.5,355.5 Z"/></g>
<g><path style="opacity:1" fill="#f03a60" d="M 282.5,379.5 C 281.1,390.565 279.267,401.565 277,412.5C 273.497,420.158 267.664,424.825 259.5,426.5C 260.552,424.744 262.219,424.077 264.5,424.5C 264.351,423.448 264.517,422.448 265,421.5C 266.716,422.552 267.716,421.886 268,419.5C 268.414,419.957 268.914,420.291 269.5,420.5C 270.727,417.269 272.394,414.269 274.5,411.5C 274.291,410.914 273.957,410.414 273.5,410C 276,407.402 277.333,404.235 277.5,400.5C 277.324,398.235 276.99,395.902 276.5,393.5C 279.016,389.007 281.016,384.34 282.5,379.5 Z"/></g>
<g><path style="opacity:0.946" fill="#f73760" d="M 264.5,349.5 C 264.6,355.103 263.933,360.603 262.5,366C 262.651,368.197 262.985,370.364 263.5,372.5C 262.475,376.134 261.142,379.967 259.5,384C 260.131,387.686 260.131,391.186 259.5,394.5C 260.025,395.192 260.692,395.692 261.5,396C 257.835,398.322 255.835,401.655 255.5,406C 231.124,406.176 206.791,406.676 182.5,407.5C 179.223,406.746 175.89,406.246 172.5,406C 171.167,405.333 171.167,404.667 172.5,404C 169.184,402.749 168.85,401.082 171.5,399C 170.133,395.427 169.133,391.76 168.5,388C 169.099,386.378 169.766,384.878 170.5,383.5C 171.915,390.027 173.249,396.693 174.5,403.5C 201.16,404.667 227.827,404.833 254.5,404C 257.578,385.687 260.912,367.521 264.5,349.5 Z"/></g>
</svg>
